TITLE ""
FILE "Step2_Track27.mp3" MP3
  TRACK 01 AUDIO
    TITLE "Step2_Track27_01"
    INDEX 01 00:00:00
  TRACK 02 AUDIO
    TITLE "Step2_Track27_02"
    INDEX 01 00:00:22
  TRACK 03 AUDIO
    TITLE "Step2_Track27_03"
    INDEX 01 00:02:03
  TRACK 04 AUDIO
    TITLE "Step2_Track27_04"
    INDEX 01 00:02:64
  TRACK 05 AUDIO
    TITLE "Step2_Track27_05"
    INDEX 01 00:03:60
  TRACK 06 AUDIO
    TITLE "Step2_Track27_06"
    INDEX 01 00:03:75
  TRACK 07 AUDIO
    TITLE "Step2_Track27_07"
    INDEX 01 00:06:07
  TRACK 08 AUDIO
    TITLE "Step2_Track27_08"
    INDEX 01 00:06:17
  TRACK 09 AUDIO
    TITLE "Step2_Track27_09"
    INDEX 01 00:07:14
  TRACK 10 AUDIO
    TITLE "Step2_Track27_10"
    INDEX 01 00:07:32
  TRACK 11 AUDIO
    TITLE "Step2_Track27_11"
    INDEX 01 00:08:59
  TRACK 12 AUDIO
    TITLE "Step2_Track27_12"
    INDEX 01 00:09:09
  TRACK 13 AUDIO
    TITLE "Step2_Track27_13"
    INDEX 01 00:10:09
  TRACK 14 AUDIO
    TITLE "Step2_Track27_14"
    INDEX 01 00:10:19
  TRACK 15 AUDIO
    TITLE "Step2_Track27_15"
    INDEX 01 00:11:47
  TRACK 16 AUDIO
    TITLE "Step2_Track27_16"
    INDEX 01 00:12:19
  TRACK 17 AUDIO
    TITLE "Step2_Track27_17"
    INDEX 01 00:13:23
  TRACK 18 AUDIO
    TITLE "Step2_Track27_18"
    INDEX 01 00:13:27
  TRACK 19 AUDIO
    TITLE "Step2_Track27_19"
    INDEX 01 00:15:04
  TRACK 20 AUDIO
    TITLE "Step2_Track27_20"
    INDEX 01 00:15:24
  TRACK 21 AUDIO
    TITLE "Step2_Track27_21"
    INDEX 01 00:16:17
  TRACK 22 AUDIO
    TITLE "Step2_Track27_22"
    INDEX 01 00:16:33
  TRACK 23 AUDIO
    TITLE "Step2_Track27_23"
    INDEX 01 00:18:28
  TRACK 24 AUDIO
    TITLE "Step2_Track27_24"
    INDEX 01 00:18:47
  TRACK 25 AUDIO
    TITLE "Step2_Track27_25"
    INDEX 01 00:19:53
  TRACK 26 AUDIO
    TITLE "Step2_Track27_26"
    INDEX 01 00:19:66
  TRACK 27 AUDIO
    TITLE "Step2_Track27_27"
    INDEX 01 00:22:22
  TRACK 28 AUDIO
    TITLE "Step2_Track27_28"
    INDEX 01 00:22:31
  TRACK 29 AUDIO
    TITLE "Step2_Track27_29"
    INDEX 01 00:23:33
  TRACK 30 AUDIO
    TITLE "Step2_Track27_30"
    INDEX 01 00:23:45
  TRACK 31 AUDIO
    TITLE "Step2_Track27_31"
    INDEX 01 00:25:51
  TRACK 32 AUDIO
    TITLE "Step2_Track27_32"
    INDEX 01 00:26:02
  TRACK 33 AUDIO
    TITLE "Step2_Track27_33"
    INDEX 01 00:26:57
  TRACK 34 AUDIO
    TITLE "Step2_Track27_34"
    INDEX 01 00:27:11
  TRACK 35 AUDIO
    TITLE "Step2_Track27_35"
    INDEX 01 00:29:55
  TRACK 36 AUDIO
    TITLE "Step2_Track27_36"
    INDEX 01 00:30:04
  TRACK 37 AUDIO
    TITLE "Step2_Track27_37"
    INDEX 01 00:31:09
  TRACK 38 AUDIO
    TITLE "Step2_Track27_38"
    INDEX 01 00:31:19
  TRACK 39 AUDIO
    TITLE "Step2_Track27_39"
    INDEX 01 00:32:61
  TRACK 40 AUDIO
    TITLE "Step2_Track27_40"
    INDEX 01 00:33:22
  TRACK 41 AUDIO
    TITLE "Step2_Track27_41"
    INDEX 01 00:34:17
  TRACK 42 AUDIO
    TITLE "Step2_Track27_42"
    INDEX 01 00:34:19
  TRACK 43 AUDIO
    TITLE "Step2_Track27_43"
    INDEX 01 00:35:64
